Coordinates
version=1
nRows=19
nColumns=24
inDegrees=yes

Units are S.I. units (second, meters, Newtons, ...)
Angles are in degrees.

endheader
time	pelvis_tilt	pelvis_list	pelvis_rotation	pelvis_tx	pelvis_ty	pelvis_tz	hip_flexion_r	hip_adduction_r	hip_rotation_r	knee_angle_r	ankle_angle_r	subtalar_angle_r	mtp_angle_r	hip_flexion_l	hip_adduction_l	hip_rotation_l	knee_angle_l	ankle_angle_l	subtalar_angle_l	mtp_angle_l	lumbar_extension	lumbar_bending	lumbar_rotation
      3.68500000	     -8.25292103	     -6.08476388	      8.21855550	     -0.27231008	     -0.03207148	      0.61256900	     28.57407488	      3.95012323	     -0.05334884	    -32.84668989	      3.51061484	     -4.70568172	     12.94066023	     15.68655429	     -4.82536324	      2.86575487	    -62.40764927	    -22.18834711	      5.45893638	     16.23083496	      9.02386619	     13.65223384	    -10.85615222
      3.69000000	     -8.17973416	     -6.12049522	      8.14571342	     -0.26555885	     -0.03078868	      0.61291652	     27.81753194	      4.15074249	      0.06711095	    -32.39423238	      3.77477437	     -4.76194727	     12.75373482	     16.67904384	     -4.83339760	      2.67681414	    -63.54447364	    -21.90699090	      6.17695778	     19.46421139	      8.86094376	     13.75419179	    -10.54154866
      3.69500000	     -8.11327172	     -6.19891104	      8.07201642	     -0.25879694	     -0.02950683	      0.61329257	     27.05018347	      4.40235731	      0.21712752	    -31.89442554	      3.98506782	     -4.88396559	     12.47377342	     17.68898089	     -4.90031232	      2.47841914	    -64.63288942	    -21.45500066	      6.89467024	     21.95386138	      8.72189519	     13.88925629	    -10.26631589
      3.70000000	     -8.04788590	     -6.18616115	      7.98794526	     -0.25201574	     -0.02817806	      0.61367978	     26.26409758	      4.55051626	      0.33337842	    -31.38647236	      4.24048950	     -4.97685667	     12.14615983	     18.65300728	     -4.86793194	      2.26839888	    -65.59693212	    -20.98661329	      7.61411912	     23.93656682	      8.56978259	     13.92410450	     -9.89666190
      3.70500000	     -7.98526862	     -6.15018150	      7.89837593	     -0.24529932	     -0.02686173	      0.61407034	     25.47016924	      4.67943315	      0.54117813	    -30.86689395	      4.51092484	     -4.98690255	     11.80441281	     19.61281609	     -4.81698303	      2.02864363	    -66.48220130	    -20.53365968	      8.17565918	     25.34892438	      8.41304888	     13.92833473	     -9.60934930
      3.71000000	     -7.93187390	     -6.07509443	      7.80027140	     -0.23862136	     -0.02557548	      0.61445205	     24.68921283	      4.74820796	      0.68603395	    -30.34865207	      4.74350647	     -4.99455195	     11.65605901	     20.56491994	     -4.72520590	      1.76228466	    -67.30098351	    -19.98207680	      8.64875160	     25.90879742	      8.25166962	     13.88892654	     -9.28101315
      3.71500000	     -7.88190725	     -6.05534359	      7.69395345	     -0.23191280	     -0.02431380	      0.61486120	     23.89392457	      4.87892431	      0.85326844	    -29.78120429	      4.93486037	     -5.01905385	     11.47887902	     21.51749747	     -4.70840164	      1.49101134	    -68.03400401	    -19.54629125	      8.94712676	     26.28262650	      8.11060897	     13.90304793	     -8.94919874
      3.72000000	     -7.84042393	     -6.01788732	      7.61888196	     -0.22517699	     -0.02307406	      0.61521917	     23.08815616	      4.96991099	      1.02411341	    -29.18712824	      5.13352096	     -4.98069520	     11.41390743	     22.46052632	     -4.66073316	      1.22890059	    -68.66989674	    -19.21155465	      9.02016965	     26.46768536	      7.99826326	     13.88441901	     -8.71539372
      3.72500000	     -7.80239678	     -5.98522550	      7.45328530	     -0.21846629	     -0.02189900	      0.61580972	     22.29822479	      5.11575884	      1.25033415	    -28.60093704	      5.27517121	     -5.12080163	     11.16615378	     23.37892008	     -4.66929964	      0.91874922	    -69.23510683	    -18.83234266	      9.21659539	     26.54960493	      7.85272592	     13.87169759	     -8.32611058
      3.73000000	     -7.77657764	     -5.93894622	      7.37540809	     -0.21172858	     -0.02075881	      0.61619252	     21.49976702	      5.18582399	      1.41602539	    -27.98649108	      5.45798981	     -5.08069237	     11.10279238	     24.30036314	     -4.60648412	      0.68226621	    -69.71157573	    -18.54281199	      9.16700145	     26.64069962	      7.75770384	     13.82930224	     -8.11120724
      3.73500000	     -7.74466739	     -5.89474894	      7.16382346	     -0.20498787	     -0.01968115	      0.61686150	     20.70773428	      5.32365786	      1.68049138	    -27.38531609	      5.59023803	     -5.20232770	     10.83646652	     25.17581945	     -4.62831868	      0.33396018	    -70.12459745	    -18.15882286	      9.21344488	     26.68112461	      7.61191484	     13.80188976	     -7.68224091
      3.74000000	     -7.71970733	     -5.84207201	      7.00088608	     -0.19823752	     -0.01865940	      0.61742013	     19.91352499	      5.41835446	      1.91790952	    -26.77415330	      5.75448748	     -5.23213662	     10.60751024	     26.04310424	     -4.60587501	      0.04178727	    -70.45966820	    -17.77648227	      9.17458872	     26.83127745	      7.49325821	     13.75291242	     -7.36338122
      3.74500000	     -7.70950657	     -5.78066097	      6.84144316	     -0.19146638	     -0.01772272	      0.61799091	     19.13207721	      5.49389119	      2.15627181	    -26.16078705	      5.93344736	     -5.23947123	     10.46067005	     26.90662946	     -4.57389129	     -0.24232963	    -70.72288989	    -17.38776771	      9.11977554	     27.08213530	      7.39557358	     13.68473423	     -7.09871377
      3.75000000	     -7.69644585	     -5.69055663	      6.60872522	     -0.18472070	     -0.01680549	      0.61869379	     18.35595470	      5.57154899	      2.48597787	    -25.56437105	      6.04076880	     -5.34540332	     10.18830039	     27.71844729	     -4.54355562	     -0.56699312	    -70.88652721	    -16.97498167	      9.09571866	     27.53305246	      7.25908102	     13.59414553	     -6.65429213
      3.75500000	     -7.67901466	     -5.57058837	      6.38461297	     -0.17796424	     -0.01596734	      0.61945166	     17.57886978	      5.61930483	      2.83047422	    -24.99074133	      6.20051145	     -5.47774172	      9.83285587	     28.49558802	     -4.49534935	     -0.90459005	    -70.95429027	    -16.62035510	      8.99134424	     28.25137133	      7.11804074	     13.45350090	     -6.30095839
      3.76000000	     -7.68670697	     -5.45516528	      6.16828487	     -0.17120991	     -0.01521038	      0.62015351	     16.82878677	      5.65040539	      3.16971058	    -24.41300399	      6.36022470	     -5.53438784	      9.56821211	     29.28595205	     -4.43631382	     -1.21166236	    -70.95260542	    -16.28414117	      8.83975617	     28.90868748	      7.00787030	     13.31921445	     -5.93940624
      3.76500000	     -7.70538759	     -5.35364569	      5.94805750	     -0.16446675	     -0.01452719	      0.62083236	     16.09442321	      5.68490362	      3.50877088	    -23.83163432	      6.48596983	     -5.57495064	      9.40229956	     30.07640824	     -4.39089390	     -1.50840313	    -70.89403275	    -15.92273743	      8.62228790	     29.30493738	      6.91022247	     13.19887919	     -5.57175026
      3.77000000	     -7.73187496	     -5.22179021	      5.72237434	     -0.15772212	     -0.01394411	      0.62158402	     15.37359836	      5.69399916	      3.88471006	    -23.26821171	      6.63426959	     -5.68794316	      9.23450739	     30.84732442	     -4.32980751	     -1.82304965	    -70.76246816	    -15.55577982	      8.32536957	     29.57546046	      6.81412651	     13.03205588	     -5.26290077
      3.77500000	     -7.75307247	     -5.07867523	      5.47076637	     -0.15102725	     -0.01340634	      0.62234952	     14.66522352	      5.69149236	      4.26419994	    -22.73143833	      6.73381707	     -5.83668731	      8.99560111	     31.58643915	     -4.27731617	     -2.16368468	    -70.55485741	    -15.20210167	      7.92010340	     29.71824233	      6.69511243	     12.86140809	     -4.84239608
